<svg xmlns="http://www.w3.org/2000/svg" viewBox="0 0 64 64">
  <!-- Spring Boot leaf logo -->
  <!-- Outer circle -->
  <circle cx="32" cy="32" r="28" fill="#6DB33F"/>
  <!-- Leaf shape (spring leaf) -->
  <path d="M32 10 C48 10 54 20 50 34 Q48 42 40 46 Q36 48 32 48 Q28 48 24 46 Q16 42 14 34 C10 20 16 10 32 10 Z" fill="white" opacity="0.2"/>
  <!-- Inner spring/leaf -->
  <path d="M20 44 C20 44 22 36 28 30 C34 24 44 20 48 16 C48 16 40 28 36 34 C32 40 28 46 20 50 Z" fill="white"/>
  <path d="M18 50 C24 48 30 42 34 36 C38 30 44 22 50 16 C44 22 36 28 30 36 C24 44 18 50 18 50 Z" fill="#6DB33F" opacity="0.3"/>
  <!-- Small arc at base (spring symbol) -->
  <path d="M16 52 Q24 46 32 48 Q24 50 18 56 Z" fill="white" opacity="0.8"/>
</svg>
