<svg xmlns="http://www.w3.org/2000/svg" viewBox="0 0 64 64">
  <!-- Python logo inspired -->
  <defs>
    <linearGradient id="py_blue" x1="0%" y1="0%" x2="100%" y2="100%">
      <stop offset="0%" style="stop-color:#4B8BBE"/>
      <stop offset="100%" style="stop-color:#306998"/>
    </linearGradient>
    <linearGradient id="py_yellow" x1="0%" y1="0%" x2="100%" y2="100%">
      <stop offset="0%" style="stop-color:#FFE873"/>
      <stop offset="100%" style="stop-color:#FFD43B"/>
    </linearGradient>
  </defs>
  <!-- Blue snake body (top) -->
  <path d="M32 4 C20 4 14 9 14 18 L14 23 L32 23 L32 26 L10 26 C7 26 4 29 4 34 L4 42 C4 52 10 58 22 58 L28 58 L28 52 L22 52 C16 52 13 49 13 43 L13 36 L32 36 L32 26 L50 26 L50 21 C50 9 44 4 32 4 Z" fill="url(#py_blue)"/>
  <!-- Yellow snake body (bottom) -->
  <path d="M32 60 C44 60 50 55 50 46 L50 41 L32 41 L32 38 L54 38 C57 38 60 35 60 30 L60 22 C60 12 54 6 42 6 L36 6 L36 12 L42 12 C48 12 51 15 51 21 L51 28 L32 28 L32 38 L14 38 L14 43 C14 55 20 60 32 60 Z" fill="url(#py_yellow)"/>
  <!-- Blue eye -->
  <circle cx="24" cy="15" r="3" fill="white"/>
  <circle cx="24" cy="15" r="1.5" fill="#306998"/>
  <!-- Yellow eye -->
  <circle cx="40" cy="49" r="3" fill="white"/>
  <circle cx="40" cy="49" r="1.5" fill="#FFD43B"/>
</svg>
